<svg xmlns="http://www.w3.org/2000/svg" width="54" height="44" style="shape-rendering:geometricPrecision;text-rendering:geometricPrecision;image-rendering:optimizeQuality;fill-rule:evenodd;clip-rule:evenodd"><path style="opacity:.966" fill="#e59438" d="M22.5-.5h7a30.143 30.143 0 0 1 3.5 3c.836 3.873 1.67 7.707 2.5 11.5a118.487 118.487 0 0 1 15 3 30.139 30.139 0 0 1 3 3.5v3c-.927 2.076-2.593 3.243-5 3.5a116.244 116.244 0 0 1-13 2c-1.623 3.603-2.79 7.437-3.5 11.5a30.139 30.139 0 0 1-3.5 3h-5a27.258 27.258 0 0 1-3.5-5 24.912 24.912 0 0 0-2.5-8.5 52.771 52.771 0 0 0-13-2c-1.952-.366-3.618-1.2-5-2.5v-6a10.522 10.522 0 0 0 3-2.5 93.298 93.298 0 0 0 15-3.5c.214-5.272 1.88-9.94 5-14Z"/></svg>